# xmcd CD database file
#
# Track frame offsets:
#	150
#	25785
#	48155
#	94490
#	125625
#	160362
#	189055
#	214905
#	236422
#	280870
#
# Disc length: 4110 seconds
#
# Revision: 0
# Processed by: cddbd v1.5.2PL0 Copyright (c) Steve Scherf et al.
# Submitted via: CDex 1.70beta2
#
DISCID=85100c0a
DTITLE=Wayne Shorter - Introducing Wayne Shorter
DYEAR=1959
DGENRE=Jazz
TTITLE0=BLUES A LA CARTE
TTITLE1=HARRY'S LAST STAND
TTITLE2=DOWN IN THE DEPTHS
TTITLE3=PUG NOSE
TTITLE4=BLACK DIAMOND
TTITLE5=MACK THE KNIFE
TTITLE6=BLUES A LA CARTE(ANOTHER TAKE)
TTITLE7=HARRY'S LAST STAND(ANOTHER TAKE)
TTITLE8=DOWN IN THE DEPTHS(ANOTHER TAKE)
TTITLE9=BLACK DIAMOND(ANOTHER TAKE)
EXTD=YEAR: 1959
EXTT0=
EXTT1=
EXTT2=
EXTT3=
EXTT4=
EXTT5=
EXTT6=
EXTT7=
EXTT8=
EXTT9=
PLAYORDER=
